<mxfile host="app.diagrams.net" agent="Mozilla/5.0 (Windows NT 10.0; Win64; x64) AppleWebKit/537.36 (KHTML, like Gecko) Chrome/137.0.0.0 Safari/537.36" version="27.1.1">
  <diagram name="PÃ¡gina-1" id="5oWoN0orPxxEujClZ55z">
    <mxGraphModel dx="928" dy="1552" grid="1" gridSize="10" guides="1" tooltips="1" connect="1" arrows="1" fold="1" page="1" pageScale="1" pageWidth="827" pageHeight="1169" math="0" shadow="0">
      <root>
        <mxCell id="0" />
        <mxCell id="1" parent="0" />
        <mxCell id="N8D4KMKe5NZ9VwpdYc88-1" value="Automovel" style="swimlane;fontStyle=1;align=center;verticalAlign=top;childLayout=stackLayout;horizontal=1;startSize=26;horizontalStack=0;resizeParent=1;resizeParentMax=0;resizeLast=0;collapsible=1;marginBottom=0;whiteSpace=wrap;html=1;" vertex="1" parent="1">
          <mxGeometry x="530" y="40" width="160" height="130" as="geometry" />
        </mxCell>
        <mxCell id="N8D4KMKe5NZ9VwpdYc88-2" value="- id: int&lt;div&gt;- marca: string&lt;/div&gt;&lt;div&gt;- modelo: string&lt;/div&gt;&lt;div&gt;- ano: int&lt;/div&gt;&lt;div&gt;- tipo: string&lt;/div&gt;" style="text;strokeColor=none;fillColor=none;align=left;verticalAlign=top;spacingLeft=4;spacingRight=4;overflow=hidden;rotatable=0;points=[[0,0.5],[1,0.5]];portConstraint=eastwest;whiteSpace=wrap;html=1;" vertex="1" parent="N8D4KMKe5NZ9VwpdYc88-1">
          <mxGeometry y="26" width="160" height="84" as="geometry" />
        </mxCell>
        <mxCell id="N8D4KMKe5NZ9VwpdYc88-3" value="" style="line;strokeWidth=1;fillColor=none;align=left;verticalAlign=middle;spacingTop=-1;spacingLeft=3;spacingRight=3;rotatable=0;labelPosition=right;points=[];portConstraint=eastwest;strokeColor=inherit;" vertex="1" parent="N8D4KMKe5NZ9VwpdYc88-1">
          <mxGeometry y="110" width="160" height="8" as="geometry" />
        </mxCell>
        <mxCell id="N8D4KMKe5NZ9VwpdYc88-4" value="&lt;div&gt;&lt;br&gt;&lt;/div&gt;&lt;div&gt;&lt;br&gt;&lt;/div&gt;" style="text;strokeColor=none;fillColor=none;align=left;verticalAlign=top;spacingLeft=4;spacingRight=4;overflow=hidden;rotatable=0;points=[[0,0.5],[1,0.5]];portConstraint=eastwest;whiteSpace=wrap;html=1;" vertex="1" parent="N8D4KMKe5NZ9VwpdYc88-1">
          <mxGeometry y="118" width="160" height="12" as="geometry" />
        </mxCell>
        <mxCell id="N8D4KMKe5NZ9VwpdYc88-5" value="Carro" style="swimlane;fontStyle=1;align=center;verticalAlign=top;childLayout=stackLayout;horizontal=1;startSize=26;horizontalStack=0;resizeParent=1;resizeParentMax=0;resizeLast=0;collapsible=1;marginBottom=0;whiteSpace=wrap;html=1;" vertex="1" parent="1">
          <mxGeometry x="400" y="280" width="160" height="70" as="geometry" />
        </mxCell>
        <mxCell id="N8D4KMKe5NZ9VwpdYc88-6" value="- portas: int" style="text;strokeColor=none;fillColor=none;align=left;verticalAlign=top;spacingLeft=4;spacingRight=4;overflow=hidden;rotatable=0;points=[[0,0.5],[1,0.5]];portConstraint=eastwest;whiteSpace=wrap;html=1;" vertex="1" parent="N8D4KMKe5NZ9VwpdYc88-5">
          <mxGeometry y="26" width="160" height="24" as="geometry" />
        </mxCell>
        <mxCell id="N8D4KMKe5NZ9VwpdYc88-7" value="" style="line;strokeWidth=1;fillColor=none;align=left;verticalAlign=middle;spacingTop=-1;spacingLeft=3;spacingRight=3;rotatable=0;labelPosition=right;points=[];portConstraint=eastwest;strokeColor=inherit;" vertex="1" parent="N8D4KMKe5NZ9VwpdYc88-5">
          <mxGeometry y="50" width="160" height="8" as="geometry" />
        </mxCell>
        <mxCell id="N8D4KMKe5NZ9VwpdYc88-8" value="&amp;nbsp;" style="text;strokeColor=none;fillColor=none;align=left;verticalAlign=top;spacingLeft=4;spacingRight=4;overflow=hidden;rotatable=0;points=[[0,0.5],[1,0.5]];portConstraint=eastwest;whiteSpace=wrap;html=1;" vertex="1" parent="N8D4KMKe5NZ9VwpdYc88-5">
          <mxGeometry y="58" width="160" height="12" as="geometry" />
        </mxCell>
        <mxCell id="N8D4KMKe5NZ9VwpdYc88-35" style="edgeStyle=orthogonalEdgeStyle;rounded=0;orthogonalLoop=1;jettySize=auto;html=1;entryX=1;entryY=0.5;entryDx=0;entryDy=0;" edge="1" parent="1" source="N8D4KMKe5NZ9VwpdYc88-9" target="N8D4KMKe5NZ9VwpdYc88-4">
          <mxGeometry relative="1" as="geometry" />
        </mxCell>
        <mxCell id="N8D4KMKe5NZ9VwpdYc88-9" value="Caminhao" style="swimlane;fontStyle=1;align=center;verticalAlign=top;childLayout=stackLayout;horizontal=1;startSize=26;horizontalStack=0;resizeParent=1;resizeParentMax=0;resizeLast=0;collapsible=1;marginBottom=0;whiteSpace=wrap;html=1;" vertex="1" parent="1">
          <mxGeometry x="650" y="270" width="160" height="70" as="geometry" />
        </mxCell>
        <mxCell id="N8D4KMKe5NZ9VwpdYc88-10" value="- capacidadeCarga: double" style="text;strokeColor=none;fillColor=none;align=left;verticalAlign=top;spacingLeft=4;spacingRight=4;overflow=hidden;rotatable=0;points=[[0,0.5],[1,0.5]];portConstraint=eastwest;whiteSpace=wrap;html=1;" vertex="1" parent="N8D4KMKe5NZ9VwpdYc88-9">
          <mxGeometry y="26" width="160" height="24" as="geometry" />
        </mxCell>
        <mxCell id="N8D4KMKe5NZ9VwpdYc88-11" value="" style="line;strokeWidth=1;fillColor=none;align=left;verticalAlign=middle;spacingTop=-1;spacingLeft=3;spacingRight=3;rotatable=0;labelPosition=right;points=[];portConstraint=eastwest;strokeColor=inherit;" vertex="1" parent="N8D4KMKe5NZ9VwpdYc88-9">
          <mxGeometry y="50" width="160" height="8" as="geometry" />
        </mxCell>
        <mxCell id="N8D4KMKe5NZ9VwpdYc88-12" value="&amp;nbsp;" style="text;strokeColor=none;fillColor=none;align=left;verticalAlign=top;spacingLeft=4;spacingRight=4;overflow=hidden;rotatable=0;points=[[0,0.5],[1,0.5]];portConstraint=eastwest;whiteSpace=wrap;html=1;" vertex="1" parent="N8D4KMKe5NZ9VwpdYc88-9">
          <mxGeometry y="58" width="160" height="12" as="geometry" />
        </mxCell>
        <mxCell id="N8D4KMKe5NZ9VwpdYc88-20" style="edgeStyle=orthogonalEdgeStyle;rounded=0;orthogonalLoop=1;jettySize=auto;html=1;entryX=0.388;entryY=0.962;entryDx=0;entryDy=0;entryPerimeter=0;" edge="1" parent="1" source="N8D4KMKe5NZ9VwpdYc88-6" target="N8D4KMKe5NZ9VwpdYc88-4">
          <mxGeometry relative="1" as="geometry" />
        </mxCell>
        <mxCell id="N8D4KMKe5NZ9VwpdYc88-22" value="&amp;lt;&amp;lt;interface&amp;gt;&amp;gt;&lt;div&gt;IAutomovelDAO&lt;/div&gt;" style="swimlane;fontStyle=1;align=center;verticalAlign=top;childLayout=stackLayout;horizontal=1;startSize=40;horizontalStack=0;resizeParent=1;resizeParentMax=0;resizeLast=0;collapsible=1;marginBottom=0;whiteSpace=wrap;html=1;" vertex="1" parent="1">
          <mxGeometry x="70" y="47" width="220" height="130" as="geometry" />
        </mxCell>
        <mxCell id="N8D4KMKe5NZ9VwpdYc88-24" value="" style="line;strokeWidth=1;fillColor=none;align=left;verticalAlign=middle;spacingTop=-1;spacingLeft=3;spacingRight=3;rotatable=0;labelPosition=right;points=[];portConstraint=eastwest;strokeColor=inherit;" vertex="1" parent="N8D4KMKe5NZ9VwpdYc88-22">
          <mxGeometry y="40" width="220" height="8" as="geometry" />
        </mxCell>
        <mxCell id="N8D4KMKe5NZ9VwpdYc88-25" value="+ inserir(auto: Automovel): void&lt;div&gt;+ atualizar(auto: Automovel): void&lt;/div&gt;&lt;div&gt;+ excluir(auto: Automovel&lt;span style=&quot;background-color: transparent; color: light-dark(rgb(0, 0, 0), rgb(255, 255, 255));&quot;&gt;): void&lt;/span&gt;&lt;/div&gt;&lt;div&gt;+ buscarPorId(id: int): Automovel&lt;/div&gt;&lt;div&gt;+ listarTodos(): List&amp;lt;Automovel&amp;gt;&lt;/div&gt;&lt;div&gt;&lt;br&gt;&lt;/div&gt;" style="text;strokeColor=none;fillColor=none;align=left;verticalAlign=top;spacingLeft=4;spacingRight=4;overflow=hidden;rotatable=0;points=[[0,0.5],[1,0.5]];portConstraint=eastwest;whiteSpace=wrap;html=1;" vertex="1" parent="N8D4KMKe5NZ9VwpdYc88-22">
          <mxGeometry y="48" width="220" height="82" as="geometry" />
        </mxCell>
        <mxCell id="N8D4KMKe5NZ9VwpdYc88-26" value="AutomovelDAO&lt;div&gt;&lt;br&gt;&lt;/div&gt;" style="swimlane;fontStyle=1;align=center;verticalAlign=top;childLayout=stackLayout;horizontal=1;startSize=26;horizontalStack=0;resizeParent=1;resizeParentMax=0;resizeLast=0;collapsible=1;marginBottom=0;whiteSpace=wrap;html=1;" vertex="1" parent="1">
          <mxGeometry x="50" y="270" width="260" height="130" as="geometry" />
        </mxCell>
        <mxCell id="N8D4KMKe5NZ9VwpdYc88-27" value="- conexao: Connection" style="text;strokeColor=none;fillColor=none;align=left;verticalAlign=top;spacingLeft=4;spacingRight=4;overflow=hidden;rotatable=0;points=[[0,0.5],[1,0.5]];portConstraint=eastwest;whiteSpace=wrap;html=1;" vertex="1" parent="N8D4KMKe5NZ9VwpdYc88-26">
          <mxGeometry y="26" width="260" height="26" as="geometry" />
        </mxCell>
        <mxCell id="N8D4KMKe5NZ9VwpdYc88-28" value="" style="line;strokeWidth=1;fillColor=none;align=left;verticalAlign=middle;spacingTop=-1;spacingLeft=3;spacingRight=3;rotatable=0;labelPosition=right;points=[];portConstraint=eastwest;strokeColor=inherit;" vertex="1" parent="N8D4KMKe5NZ9VwpdYc88-26">
          <mxGeometry y="52" width="260" height="8" as="geometry" />
        </mxCell>
        <mxCell id="N8D4KMKe5NZ9VwpdYc88-29" value="+ inserir(auto: Automovel): void&lt;div&gt;+ atualizar(auto: Automovel): void&lt;/div&gt;&lt;div&gt;+ excluir(auto: Automovel): void&lt;/div&gt;&lt;div&gt;+ listarTodos(): List&amp;lt;Automovel&amp;gt;&lt;/div&gt;" style="text;strokeColor=none;fillColor=none;align=left;verticalAlign=top;spacingLeft=4;spacingRight=4;overflow=hidden;rotatable=0;points=[[0,0.5],[1,0.5]];portConstraint=eastwest;whiteSpace=wrap;html=1;" vertex="1" parent="N8D4KMKe5NZ9VwpdYc88-26">
          <mxGeometry y="60" width="260" height="70" as="geometry" />
        </mxCell>
        <mxCell id="N8D4KMKe5NZ9VwpdYc88-31" style="edgeStyle=orthogonalEdgeStyle;rounded=0;orthogonalLoop=1;jettySize=auto;html=1;entryX=0.5;entryY=1;entryDx=0;entryDy=0;entryPerimeter=0;" edge="1" parent="1" source="N8D4KMKe5NZ9VwpdYc88-26" target="N8D4KMKe5NZ9VwpdYc88-25">
          <mxGeometry relative="1" as="geometry" />
        </mxCell>
        <mxCell id="N8D4KMKe5NZ9VwpdYc88-36" value="Conecta" style="swimlane;fontStyle=1;align=center;verticalAlign=top;childLayout=stackLayout;horizontal=1;startSize=26;horizontalStack=0;resizeParent=1;resizeParentMax=0;resizeLast=0;collapsible=1;marginBottom=0;whiteSpace=wrap;html=1;" vertex="1" parent="1">
          <mxGeometry x="340" y="441" width="190" height="144" as="geometry" />
        </mxCell>
        <mxCell id="N8D4KMKe5NZ9VwpdYc88-37" value="- Driver: string&lt;div&gt;- URL: string&lt;/div&gt;&lt;div&gt;- USERNAME: string&lt;/div&gt;&lt;div&gt;- PASSWORD: string&lt;/div&gt;&lt;div&gt;- conexao: Connection&lt;/div&gt;" style="text;strokeColor=none;fillColor=none;align=left;verticalAlign=top;spacingLeft=4;spacingRight=4;overflow=hidden;rotatable=0;points=[[0,0.5],[1,0.5]];portConstraint=eastwest;whiteSpace=wrap;html=1;" vertex="1" parent="N8D4KMKe5NZ9VwpdYc88-36">
          <mxGeometry y="26" width="190" height="84" as="geometry" />
        </mxCell>
        <mxCell id="N8D4KMKe5NZ9VwpdYc88-38" value="" style="line;strokeWidth=1;fillColor=none;align=left;verticalAlign=middle;spacingTop=-1;spacingLeft=3;spacingRight=3;rotatable=0;labelPosition=right;points=[];portConstraint=eastwest;strokeColor=inherit;" vertex="1" parent="N8D4KMKe5NZ9VwpdYc88-36">
          <mxGeometry y="110" width="190" height="8" as="geometry" />
        </mxCell>
        <mxCell id="N8D4KMKe5NZ9VwpdYc88-39" value="+ getConexao(): Connection" style="text;strokeColor=none;fillColor=none;align=left;verticalAlign=top;spacingLeft=4;spacingRight=4;overflow=hidden;rotatable=0;points=[[0,0.5],[1,0.5]];portConstraint=eastwest;whiteSpace=wrap;html=1;" vertex="1" parent="N8D4KMKe5NZ9VwpdYc88-36">
          <mxGeometry y="118" width="190" height="26" as="geometry" />
        </mxCell>
        <mxCell id="N8D4KMKe5NZ9VwpdYc88-40" value="" style="endArrow=diamondThin;endFill=0;endSize=24;html=1;rounded=0;entryX=1;entryY=0.5;entryDx=0;entryDy=0;exitX=0.5;exitY=0;exitDx=0;exitDy=0;" edge="1" parent="1" source="N8D4KMKe5NZ9VwpdYc88-36" target="N8D4KMKe5NZ9VwpdYc88-29">
          <mxGeometry width="160" relative="1" as="geometry">
            <mxPoint x="350" y="390" as="sourcePoint" />
            <mxPoint x="420" y="490" as="targetPoint" />
          </mxGeometry>
        </mxCell>
      </root>
    </mxGraphModel>
  </diagram>
</mxfile>
